<svg width="71" height="19" viewBox="0 0 71 19" fill="none" xmlns="http://www.w3.org/2000/svg">
<path d="M1.49533 17.8225C1.49533 17.8225 1.27103 17.8973 1.19626 17.8599H1.08411V17.8225C0.93458 17.8225 0.822431 17.8225 0.785047 17.7478L0.672899 17.673L0.523366 17.5608C0.523366 17.5608 0.336449 17.3739 0.336449 17.3365V17.2618L0.261685 16.9627C0.261685 16.8879 0.261685 16.7758 0.261685 16.6636V16.3272L0.224301 15.8786C0.224301 15.8786 0.224302 15.6917 0.261685 15.5795V15.4674V15.1309V14.9066V14.6449C0.261685 14.5328 0.261682 14.4206 0.299065 14.3833V14.3085V13.8599C0.261682 13.7478 0.224301 13.673 0.224301 13.5982V13.5235C0.224301 13.5235 0.224301 13.4113 0.224301 13.3739V13.2618V13.1122C0.224301 13.0749 0.224301 13.0001 0.224301 12.8506V12.2524C0.224301 12.2524 0.224302 12.0655 0.261685 11.9907V11.8786C0.261685 11.8786 0.261685 11.6543 0.261685 11.6169V11.5048L0.299065 11.3178V11.0562C0.299065 11.0562 0.186917 10.8319 0.186917 10.7197V10.4954L0.149533 10.2337H0.373833C0.373833 10.2337 0.336451 10.159 0.261685 10.1216C0.186918 10.0468 0.149534 10.0094 0.186917 10.0094V9.93466V9.71037V9.6356C0.186917 9.6356 0.0373841 9.37391 0.0373841 9.29915V9.187C0.0373841 9.187 0.0373841 8.92532 0.0373841 8.88794V8.77579L0.0747681 8.70102C0.0747681 8.62625 0.0747681 8.5141 0.0747681 8.40195V8.28981C0.0747681 8.28981 0.0747681 8.14027 0.0747681 8.0655V7.95336L0.112152 7.65429V7.46737V7.28046H0.373833C0.373833 7.24308 0.299067 7.1683 0.224301 7.09354C0.149534 7.01877 0.112152 6.98139 0.112152 6.94401V6.83186C0.112152 6.83186 0.112152 6.64494 0.112152 6.53279V6.42065V6.15896V5.78513L0.0373841 5.67298C0.0373841 5.52345 0 5.44868 0 5.4113V4.88794V4.58887C0 4.47672 8.56469e-07 4.40195 0.0373841 4.32718V4.21504L0.0747681 3.99073C0.0747681 3.8412 0.0747663 3.72905 0.149533 3.69167L0.224301 3.57952C0.224301 3.57952 0.4486 3.42999 0.523366 3.42999H0.971964L1.00935 3.35522H1.27103L1.42056 3.31784C1.53271 3.31784 1.60748 3.31783 1.68224 3.35522H1.7944H1.98131H2.05608C2.05608 3.35522 2.24299 3.35522 2.35514 3.35522H2.50467C2.61682 3.31783 2.69159 3.28046 2.76636 3.28046H2.95327L3.06543 3.35522H3.28972C3.28972 3.35522 3.51402 3.31783 3.58879 3.35522H3.70094L3.7757 3.3926C3.88785 3.3926 4 3.3926 4.07477 3.3926H4.2243H4.41122H4.52337C4.52337 3.3926 4.63552 3.3926 4.74767 3.42999H4.8972C4.8972 3.42999 4.93458 3.57952 4.97197 3.57952C4.97197 3.57952 5.04673 3.57952 5.08412 3.50475C5.1215 3.42999 5.19627 3.42999 5.19627 3.42999H5.30842L5.45795 3.50475H5.68225L5.75701 3.42999C5.86916 3.42999 5.98131 3.42999 6.05608 3.42999H6.16823V3.46737L6.39253 3.3926H6.61683L6.76636 3.50475L6.99066 3.42999C6.99066 3.42999 7.21496 3.3926 7.28972 3.42999H7.40188L7.43926 3.46737C7.58879 3.46737 7.70094 3.46737 7.77571 3.54214L7.92524 3.61691L8.14954 3.69167C8.14954 3.69167 8.29907 3.76644 8.4486 3.8412L8.56075 3.91597L8.93459 4.10288L9.1215 4.17765L9.30842 4.25242H9.3458C9.3458 4.25242 9.49533 4.40195 9.53272 4.43933L9.64487 4.55149C9.64487 4.55149 9.83178 4.70102 9.86917 4.7384L9.94393 4.81317L10.0935 5.07485L10.2056 5.26176V5.37391L10.3178 5.82252C10.3925 5.93467 10.4299 6.00943 10.4299 6.0842V6.19634C10.4299 6.19634 10.5047 6.38326 10.5047 6.45803V6.57018V6.90663C10.5421 7.05616 10.5421 7.13092 10.5047 7.20569L10.4299 7.31784V7.39261C10.4299 7.39261 10.4673 7.61691 10.4299 7.69168V7.80382H10.3925V7.91597C10.3925 7.91597 10.3925 8.02812 10.3551 8.14027L10.2804 8.25242C10.2804 8.25242 10.2804 8.32718 10.2804 8.36457C10.2804 8.40195 10.2804 8.47672 10.2056 8.58887L10.0935 8.85055L9.98132 9.03747C9.98132 9.03747 9.90655 9.187 9.7944 9.26177L9.71963 9.33653L9.53272 9.59821C9.45795 9.67298 9.42057 9.71037 9.38319 9.74775H9.30842L9.08412 9.97205C8.97197 10.0842 8.8972 10.159 8.78505 10.1964L8.56075 10.2711L8.37384 10.3459L8.52337 10.4954L8.85982 10.6823H8.8972C8.8972 10.6823 9.1215 10.6823 9.15888 10.7571L9.23365 10.8319H9.27104C9.27104 10.8319 9.53272 10.8692 9.64487 10.9814L9.83178 11.1309C9.83178 11.1309 10.0187 11.1683 10.0935 11.2431L10.243 11.3552C10.243 11.3552 10.4299 11.5048 10.4673 11.5795C10.5421 11.6543 10.5794 11.7291 10.5794 11.7664V11.8412L10.6542 11.8786C10.7664 11.9534 10.8411 12.0655 10.8411 12.1403V12.2898L10.9907 12.5889L11.0654 12.8132L11.1776 13.0749C11.1776 13.0749 11.2523 13.2618 11.2523 13.3365V13.4487V13.5982V13.8973V13.972C11.2523 14.0094 11.2523 14.0842 11.2523 14.159C11.2523 14.2337 11.2523 14.3085 11.2523 14.3459V14.6076C11.2523 14.6076 11.215 14.7571 11.1776 14.8693V14.9814V15.0188C11.1776 15.0188 11.1776 15.0935 11.1776 15.1309C11.1776 15.1683 11.1776 15.2431 11.1028 15.3178L11.028 15.43V15.5795V15.6169C11.028 15.6917 10.9907 15.8038 10.9159 15.916C10.9159 15.9534 10.9159 15.9907 10.8411 16.0281C10.8411 16.0281 10.7664 16.0655 10.7664 16.1029L10.6916 16.1777L10.6168 16.3646C10.6168 16.3646 10.5794 16.4393 10.5421 16.4767C10.5421 16.5141 10.5047 16.5515 10.4673 16.5889L10.3925 16.6636V16.7384C10.3925 16.7384 10.2056 16.9253 10.0935 17.0001H10.0187C10.0187 17.0001 9.83179 17.1496 9.75702 17.2244H9.64487C9.64487 17.2244 9.5701 17.2992 9.53272 17.3365C9.49533 17.3739 9.45795 17.4113 9.38319 17.4487L9.23365 17.5235C9.23365 17.5235 9.08412 17.673 9.00935 17.7478C8.8972 17.7851 8.82244 17.8225 8.78505 17.7851L8.4486 17.4861L8.71029 17.7851C8.71029 17.7851 8.71029 17.8973 8.59814 17.8973C8.52337 17.8973 8.48599 17.8973 8.41122 17.8973H8.29907L8.00001 17.9721C8.00001 17.9721 7.77571 18.0468 7.73833 18.0468H7.66356C7.66356 18.0468 7.40187 18.0468 7.32711 18.0468H7.02804H6.84113H6.57944C6.57944 18.0468 6.39253 18.0842 6.31776 18.0842H6.16823H5.86917C5.7944 18.1216 5.71963 18.159 5.64486 18.1216L5.53272 18.0468L5.23365 18.1216C5.23365 18.1216 5.1215 18.1216 5.04673 18.1216C4.97197 18.1216 4.93459 18.1216 4.93459 18.1216H4.63552C4.56075 18.1216 4.4486 18.159 4.29907 18.159H3.92524H3.88785C3.7757 18.2337 3.66356 18.2337 3.51402 18.2337H3.32711L3.10281 18.159H2.84112C2.84112 18.159 2.57944 18.2337 2.54206 18.2337C2.46729 18.2337 2.39252 18.2337 2.31776 18.1964H2.20561L2.05608 18.1216H1.45795H1.42056L1.49533 17.8225ZM2.50467 5.71036L2.42991 5.93466L2.31776 6.34588C2.31776 6.34588 2.31776 6.57018 2.28038 6.60756V6.68233V6.94401C2.28038 7.01878 2.28038 7.13092 2.28038 7.24307V7.39261L2.20561 7.57952V7.84121L2.28038 8.25242V8.47672C2.28038 8.47672 2.35514 8.66363 2.35514 8.7384V8.85055V8.92532C2.39253 9.03747 2.42991 9.14961 2.42991 9.29915V9.59821L2.46729 9.74775L2.87851 9.89728H3.10281H3.28972H3.36449C3.36449 9.89728 3.62617 9.82252 3.66356 9.82252C3.77571 9.82252 3.85047 9.82252 3.88785 9.82252H4.00001L4.14954 9.89728H4.2243C4.2243 9.89728 4.48599 9.82252 4.59814 9.82252H4.85982C4.85982 9.82252 5.08412 9.82252 5.1215 9.8599H5.19627L5.30842 9.89728C5.3458 9.89728 5.38318 9.89728 5.42056 9.89728C5.45795 9.89728 5.49533 9.89728 5.53272 9.89728H5.60748H5.90655H6.243H6.50468H6.65421H6.84113L7.25234 9.71037L7.47664 9.59821L7.66356 9.48607L7.77571 9.33653L7.92524 9.14962C7.92524 9.14962 7.96262 9.03747 8.03739 8.92532L8.11216 8.81317V8.70102L8.18692 8.47672V8.40195V8.10289V7.65429L8.11216 7.42999V7.16831L8.03739 6.90663C8.03739 6.86924 8.03739 6.79448 8.03739 6.7571C8.03739 6.68233 8.03739 6.64494 8.03739 6.64494V6.53279C8.03739 6.53279 7.96262 6.42064 7.88786 6.27111L7.81309 6.12158L7.70094 5.93466L7.28972 5.71036H7.10281L6.91589 5.67298L6.243 5.59821H6.05608L5.7944 5.48607V5.26176C5.7944 5.26176 5.7944 5.26176 5.75701 5.26176C5.71963 5.26176 5.71963 5.29915 5.64486 5.4113C5.5701 5.52345 5.53272 5.56083 5.53272 5.56083H5.45795L5.15888 5.52345C5.15888 5.52345 5.00935 5.59821 4.8972 5.59821H4.82243L4.37384 5.56083H4.14954C4.03739 5.63559 3.92524 5.63559 3.81309 5.59821L3.66356 5.52345L3.21496 5.59821C3.21496 5.59821 3.02804 5.63559 2.95327 5.59821H2.84112L2.46729 5.67298L2.39253 5.82252L2.50467 5.71036ZM2.39253 15.7291L2.50467 15.8412H2.65421C2.65421 15.8412 2.84112 15.8412 2.95327 15.8786H3.06543H3.51402C3.66356 15.8786 3.73832 15.8786 3.7757 15.8786H3.85047H3.92524C4.11215 15.8038 4.2243 15.7664 4.26169 15.8038L4.41122 15.9907V15.8412C4.41122 15.8412 4.4486 15.7664 4.52337 15.7664C4.56075 15.7664 4.6729 15.8038 4.82243 15.8786L5.04673 15.9907L5.27103 15.916H5.3458C5.3458 15.916 5.53271 15.916 5.64486 15.916H5.98131L6.243 15.8412L6.42991 15.7664C6.42991 15.7664 6.61683 15.7291 6.72898 15.7291H7.10281H7.32711L7.58879 15.6169L7.96262 15.5048L8.07477 15.43L8.2243 15.3178L8.37384 15.1683L8.52337 15.0188L8.63552 14.8319L8.78505 14.6076L8.8972 14.3833V13.972L8.93459 13.8973C8.93459 13.7851 8.93459 13.7104 8.93459 13.6356V13.5608V13.2618H9.15888C9.15888 13.2618 9.08412 13.2244 8.97197 13.1496C8.85982 13.0749 8.78505 13.0375 8.74767 13.0375V12.9627L8.63552 12.6636L8.52337 12.4767L8.4486 12.3272L8.11216 11.9534L7.88786 11.8038C7.88786 11.8038 7.70094 11.8038 7.62617 11.7291H7.55141L7.36449 11.5421H7.28972C7.28972 11.5421 7.10281 11.5421 7.02804 11.5421H6.91589L6.65421 11.5048L6.28038 11.43H6.05608C6.0187 11.43 5.94393 11.43 5.90655 11.43C5.86916 11.43 5.83178 11.43 5.7944 11.43H5.45795C5.45795 11.43 5.23365 11.43 5.19627 11.43H5.08412H4.82243H4.6729C4.6729 11.43 4.56075 11.43 4.52337 11.43H4.41122V11.3926C4.37384 11.3926 4.29907 11.3926 4.26169 11.3926C4.18692 11.3926 4.18692 11.3926 4.14954 11.3926H3.92524C3.92524 11.3926 3.7757 11.3926 3.73832 11.3552H3.62617L3.40187 11.3178L2.95327 11.3926L2.80374 11.4674L2.57944 11.5421L2.50467 11.6543L2.39253 11.9534V12.1403C2.39253 12.1403 2.39253 12.215 2.39253 12.2524C2.39253 12.2898 2.39253 12.3646 2.39253 12.402V12.5141L2.35514 12.8506V13.2618C2.35514 13.2618 2.35514 13.4861 2.35514 13.5235V13.5982L2.31776 13.8973V14.3459C2.31776 14.3459 2.39253 14.5702 2.39253 14.6449V15.3552V15.6169V15.7291Z" fill="#E35812"/>
<path d="M16.1866 10.8317V10.9813C16.1866 10.9813 16.1866 11.1682 16.1866 11.2803V11.3925L16.1118 11.5794L15.9623 11.8785H16.1118C16.1118 11.8785 16.1866 11.9158 16.1866 11.9906V12.1775V12.3271C16.1866 12.4392 16.1866 12.514 16.1492 12.5887L16.0744 12.7009V13.1869C16.0744 13.1869 16.1118 13.3364 16.1118 13.4485V13.8224C16.1118 13.8224 16.1118 14.0093 16.1118 14.0841V14.1962L16.0371 14.4579V14.8691L16.0744 14.9439C16.0744 15.0186 16.0744 15.1308 16.0744 15.2429C16.0744 15.3551 16.0744 15.4299 16.0744 15.4672V15.5794V15.8037C16.0744 15.8785 16.0744 15.9532 16.0744 16.0654V16.4392C16.0744 16.4392 16.0744 16.5887 16.0744 16.6635V16.7756C16.1118 16.8878 16.1118 16.9999 16.0744 17.0747V17.1869L15.9997 17.3738V17.6355V17.9345C15.9997 18.0093 15.9623 18.0841 15.8875 18.0841H15.8128L15.5885 18.1962C15.5137 18.1962 15.4015 18.2336 15.2894 18.2336H14.9529C14.9529 18.2336 14.766 18.2336 14.6913 18.2336H14.5791V18.1962C14.5043 18.1962 14.3922 18.2336 14.2427 18.2336C14.0931 18.2336 14.0184 18.1962 13.981 18.1214V18.0467L13.9062 17.7102V17.4859H14.1305C14.1305 17.4859 14.0557 17.4112 13.9436 17.3364C13.8314 17.2616 13.7941 17.1869 13.7941 17.1495V16.813C13.7941 16.813 13.7941 16.6261 13.7941 16.514L13.9062 15.9532L13.981 15.7289V15.5046L13.9436 15.3177C13.9436 15.1682 13.9436 15.0934 13.9436 15.0186V14.9065L13.981 14.6822V14.4579V14.3084C13.9436 14.1214 13.9062 14.0093 13.9062 13.9719V13.8224C13.9062 13.8224 13.8688 13.7102 13.8314 13.5981C13.8314 13.5233 13.8314 13.4485 13.8314 13.3738V13.2616V12.5887C13.7941 12.4766 13.7941 12.3644 13.8314 12.2897L13.9062 11.9906V11.9158C13.9062 11.9158 13.8314 11.6915 13.8314 11.6168V11.5046V11.4299C13.8314 11.3925 13.8314 11.3551 13.8314 11.3177C13.8314 11.2803 13.8314 11.2056 13.8314 11.1682V11.056V10.9439C13.8314 10.8691 13.8314 10.7943 13.8314 10.757V10.6074V10.57C13.8314 10.4205 13.8314 10.3084 13.8314 10.271V10.1588V9.74761C13.7567 9.63546 13.7567 9.56069 13.7567 9.48593V9.33639V9.22425V9.14948C13.7567 9.14948 13.7567 8.99994 13.7567 8.96256C13.7567 8.92518 13.7567 8.85041 13.7567 8.81303V8.62612L13.7941 8.40181V8.28967C13.7941 8.28967 13.7941 8.17751 13.7941 8.14013C13.7941 8.06536 13.7941 8.06536 13.7941 8.02798V7.95322V7.69154V7.50462H13.8314C13.8314 7.46723 13.8314 7.42985 13.8314 7.35509C13.8314 7.28032 13.8314 7.24293 13.8314 7.20555L13.981 7.05602H13.8688C13.8688 7.05602 13.7941 7.05602 13.7941 6.94387V6.68219L13.8314 6.45789V6.34574C13.8314 6.34574 13.7567 6.12144 13.7567 6.08406V6.00929L13.7941 5.82238V5.74761C13.7941 5.74761 13.7193 5.52331 13.7193 5.44854V5.33639V5.14948C13.7193 5.14948 13.6445 4.92518 13.6445 4.81303V4.70088V4.40181V4.25228C13.6445 4.25228 13.6445 4.02798 13.7193 3.95322C13.7567 3.87845 13.8688 3.84106 14.0184 3.84106H14.28H14.467H14.766H14.9156H14.9529C14.9529 3.84106 15.1399 3.7663 15.252 3.7663H15.3642L15.5885 3.84106C15.738 3.84106 15.8501 3.95321 15.9249 4.10275C15.9249 4.10275 15.9623 4.36443 15.9623 4.47658V4.66349V4.8878C15.9623 4.8878 16.0371 5.1121 16.0371 5.18686V5.29901V5.41116C16.0371 5.41116 16.0371 5.63546 16.0371 5.67284V5.85975L15.9623 6.12144V6.34574L15.9249 6.53265V6.6448C15.9249 6.6448 15.9249 6.79433 15.8875 6.83172L15.8128 6.94387C15.8128 6.94387 15.8128 7.20555 15.8128 7.28032V7.39247L15.7754 7.80368C15.7754 7.87845 15.7754 7.95321 15.7754 8.06536V8.17752C15.7754 8.17752 15.7754 8.4392 15.7754 8.51396V8.66349V8.85041C15.7754 8.99995 15.7754 9.07471 15.7754 9.14948V9.29901C15.7754 9.29901 15.7754 9.52331 15.7754 9.5607V9.71023C15.7754 9.71023 15.8875 9.89714 15.8875 9.97191C15.8875 10.0467 15.8875 10.1214 15.8875 10.1962V10.3457L15.8501 10.4953L15.9623 10.8317C15.9623 10.8317 15.9997 11.0186 15.9997 11.0934L16.1866 10.8317Z" fill="#E35812"/>
<path d="M24.299 17.972H24.1868L23.8878 17.8972C23.813 17.9346 23.7382 17.972 23.6635 17.9346H23.5513L23.2149 17.8972C23.1027 17.8972 23.0279 17.8972 22.9532 17.8599L22.7289 17.7477H22.4672C22.4672 17.7477 22.2429 17.7103 22.1307 17.6729L21.7569 17.5608H21.6074C21.6074 17.5608 21.3831 17.486 21.3083 17.4486L21.1214 17.3365H21.0466V17.2991C20.8971 17.2617 20.8223 17.2243 20.785 17.187L20.7102 17.1122L20.5233 16.9627H20.4859C20.4859 16.9627 20.299 16.8131 20.2616 16.7757L20.1868 16.6636C20.1868 16.6636 19.9625 16.5888 19.8504 16.5141H19.7756C19.7756 16.5141 19.7008 16.4393 19.6635 16.4019C19.6261 16.4019 19.5887 16.3271 19.5513 16.2898L19.4765 16.1776C19.4765 16.1776 19.4018 15.9533 19.4018 15.8785C19.4018 15.8412 19.4018 15.729 19.4765 15.6169V15.5421C19.4765 15.5421 19.5887 15.3552 19.6635 15.2804L19.7756 15.1683L19.9625 15.0187L20.0747 14.8318C20.0747 14.8318 20.2242 14.6449 20.299 14.6075C20.3737 14.6075 20.4485 14.6075 20.4859 14.6075H20.5607L20.6354 14.6449C20.7476 14.6823 20.8597 14.7571 20.9345 14.8318L21.084 14.944H21.1962C21.1962 14.944 21.3831 15.0935 21.4205 15.0935H21.4578L21.6822 15.2804L21.8691 15.3552L22.056 15.4673L22.2429 15.5421C22.2429 15.5421 22.5046 15.6169 22.542 15.6543L22.6915 15.7664H22.8784L23.0279 15.8412C23.1401 15.8412 23.2149 15.8412 23.2896 15.9159L23.4018 15.9907H23.4765C23.4765 15.9907 23.7008 15.9159 23.7382 15.9907H23.813H24.2242H24.6354H24.8971H25.0466L25.2709 15.9159C25.2709 15.9159 25.4579 15.8038 25.5326 15.8038H25.9065L26.1681 15.729C26.3177 15.6916 26.4298 15.6916 26.4672 15.729H26.542H26.6167C26.7663 15.6916 26.841 15.6543 26.8784 15.6543H26.9906L27.2149 15.5795L27.4018 15.5047L27.6261 15.3552L27.7756 15.2804L27.9251 15.0935L27.9999 14.9066L28.1121 14.6823L28.3737 14.3085L28.4485 14.1963V14.1215L28.5607 13.8225V13.6729V13.2617L28.4859 13.1496L28.3737 13L28.1868 12.7757L28.0747 12.6262L27.8878 12.4767L27.7382 12.3645L27.5513 12.2524L27.3644 12.1776L27.1027 12.0281L27.0279 11.9533H26.9532C26.9532 11.9533 26.6915 11.8785 26.6541 11.8785H26.542L26.5046 11.8412C26.5046 11.8412 26.3924 11.8412 26.3551 11.7664C26.3177 11.729 26.2803 11.6916 26.2429 11.6542C26.2429 11.6542 26.2055 11.6543 26.1307 11.729C26.0934 11.7664 26.056 11.8038 26.0186 11.7664L25.9065 11.6916L25.6822 11.5795L25.3831 11.5047L24.9719 11.43L24.7476 11.3552H24.5607L24.299 11.3178C24.1494 11.3178 24.0373 11.3178 23.9999 11.243L23.9251 11.1683H23.8504C23.8504 11.1683 23.7382 11.1683 23.6635 11.1309H23.5513L23.5139 11.0561C23.3644 11.0561 23.2522 11.0187 23.2149 10.9813L23.1027 10.9066L22.8036 10.7944L22.355 10.6823L22.1681 10.6075L21.9812 10.4954H21.8691C21.8691 10.4954 21.6822 10.3832 21.6074 10.3458L21.4952 10.2711L21.3083 10.1215H21.2709C21.2709 10.1215 21.0466 10.0094 21.0093 9.972L20.8971 9.89723C20.8971 9.89723 20.7102 9.82247 20.6728 9.7477V9.67294L20.5233 9.59817C20.4111 9.48602 20.3364 9.41125 20.2616 9.37387L20.0747 9.18696C20.0747 9.18696 19.8878 9.11219 19.8504 9.03742L19.7756 8.96265C19.7756 8.96265 19.5887 8.73836 19.5887 8.70097V8.58883L19.3644 8.21499C19.327 8.14023 19.2896 8.02808 19.327 7.91593V7.76639C19.327 7.76639 19.327 7.57948 19.327 7.50471V7.42994V7.3178V7.13088V6.94396V6.75705V6.49536C19.327 6.49536 19.327 6.27106 19.3644 6.23368L19.4392 6.15891V5.89723C19.4392 5.89723 19.5139 5.82247 19.5513 5.59817V5.48602L19.7756 5.14957L19.8504 4.88789L19.9251 4.73835L20.0373 4.55144C20.0373 4.55144 20.1121 4.36452 20.2242 4.28975L20.3364 4.21499L20.4859 4.10284C20.4859 4.10284 20.598 3.91593 20.7102 3.87854H20.8223L20.9719 3.72901C21.1214 3.61686 21.1962 3.54209 21.2336 3.54209C21.3083 3.46733 21.3831 3.42994 21.4578 3.42994L21.7569 3.3178L22.0934 3.13088L22.3177 3.05611L22.3924 2.98135C22.3924 2.98135 22.542 2.86919 22.6167 2.86919H22.9532L23.1027 2.83181L23.327 2.75704C23.327 2.75704 23.5139 2.71967 23.7008 2.71967H23.9625L24.1494 2.68228H24.4485L24.6728 2.6449H24.8971L25.1588 2.57013H25.3457L25.4579 2.6449H25.7569H25.9812C26.0934 2.6449 26.1681 2.6449 26.2803 2.71967L26.4298 2.79443L26.6541 2.86919C26.6541 2.86919 26.841 2.8692 26.9158 2.90658H27.0279L27.2896 3.01873V3.3178C27.2896 3.3178 27.3644 3.28041 27.4392 3.20564C27.5139 3.13088 27.5513 3.13088 27.5513 3.13088L27.6261 3.20564L27.8878 3.3178C27.8878 3.3178 28.0747 3.35517 28.1494 3.42994L28.2242 3.50471C28.2242 3.50471 28.4485 3.54209 28.4859 3.57948L28.598 3.65425L28.7476 3.76639C28.7476 3.76639 28.9345 3.87854 29.0093 3.99069L29.1214 4.10284C29.1214 4.10284 29.3083 4.21499 29.3457 4.25238C29.3831 4.28976 29.4579 4.36452 29.4952 4.43929C29.4952 4.51406 29.4952 4.55144 29.4952 4.6262V4.73835L29.3831 4.96265C29.3831 5.03742 29.3083 5.14957 29.2709 5.26172C29.2709 5.33648 29.1962 5.37387 29.1214 5.44864L28.9719 5.59817L28.8597 5.67293L28.7102 5.85985C28.7102 5.85985 28.5607 6.00938 28.4485 6.00938C28.3737 6.00938 28.3364 6.00938 28.2616 5.972C28.1868 5.972 28.1494 5.93462 28.1121 5.89723L27.9251 5.7477L27.7382 5.63555L27.2896 5.44864L27.1401 5.37387L26.9906 5.2991L26.7289 5.18696L26.5794 5.11219H26.5046C26.5046 5.11219 26.2803 5.11219 26.2055 5.03742L26.0934 4.96265H25.9065L25.6822 4.88789H25.5326L25.3457 4.81312H25.2336C25.2336 4.81312 25.0093 4.77574 24.9719 4.73835H24.8597L24.2242 4.70097H24.0747L23.9999 4.73835C23.8878 4.73835 23.7756 4.73835 23.7008 4.73835H23.5513C23.5139 4.77574 23.4392 4.81312 23.327 4.85051H23.2149L22.9906 4.96265L22.8036 5.03742L22.6167 5.14957L22.4672 5.22433L22.2055 5.41125C22.2055 5.41125 22.1307 5.44864 22.0934 5.52341C22.056 5.56079 22.0186 5.59817 21.9812 5.56078L21.8317 5.48602V5.63555L21.8691 5.71032C21.8691 5.78509 21.8317 5.85985 21.7195 5.93462L21.6074 6.00938L21.5326 6.30845C21.5326 6.30845 21.5326 6.53275 21.5326 6.60751V6.75705L21.6074 7.20565L21.6822 7.35518L21.7943 7.54209L22.0186 7.87854L22.1681 8.02807L22.355 8.21499H22.4298C22.4298 8.21499 22.6541 8.28976 22.7289 8.32715H22.841C22.841 8.32715 22.9158 8.40191 22.9906 8.40191C23.0279 8.40191 23.1027 8.43929 23.1775 8.47668L23.4018 8.58883L23.6261 8.66359H23.8504V9.03742C23.8504 9.03742 23.9251 8.96266 23.9999 8.88789C24.0747 8.81313 24.1121 8.77574 24.1494 8.77574L24.2616 8.85051H24.3737C24.3737 8.85051 24.4859 8.85051 24.5233 8.88789L24.598 8.96265L25.1214 9.07481L25.3083 9.14957C25.3083 9.14957 25.3831 9.14957 25.4205 9.14957C25.4952 9.14957 25.5326 9.14957 25.57 9.18696H25.7195L26.2055 9.2991C26.3551 9.2991 26.4672 9.37387 26.5046 9.41125L26.5794 9.48602H26.7289H26.8036C26.9158 9.48602 27.0279 9.48602 27.1027 9.56079L27.2149 9.63555L27.5887 9.78509H27.6635L27.9251 9.85986C27.9251 9.85986 28.0373 9.89723 28.1121 9.972L28.1868 10.0468L28.4485 10.1589H28.4859C28.4859 10.1589 28.7102 10.2711 28.7476 10.3085L28.8223 10.3832L29.0093 10.4954L29.2709 10.7197C29.2709 10.7197 29.3457 10.7571 29.3831 10.7944C29.3831 10.7944 29.4579 10.8318 29.4579 10.8692V10.944H29.5326C29.6448 11.0187 29.7195 11.0935 29.7569 11.1683L29.8317 11.2804L29.9438 11.43V11.5421C29.9438 11.5421 30.0934 11.729 30.1308 11.8038C30.1681 11.8785 30.2055 11.9533 30.2055 12.0655L30.2803 12.2898L30.3551 12.4019V12.5514C30.3551 12.5514 30.4672 12.7384 30.4672 12.7757V12.8505L30.5046 12.9253C30.5794 13.0748 30.6167 13.1496 30.6167 13.187V13.3739V13.486C30.6167 13.486 30.6541 13.7103 30.6541 13.7477V13.8972L30.6167 14.0842V14.3832L30.5794 14.458C30.5794 14.4954 30.5794 14.5701 30.542 14.6449L30.4672 14.7571L30.3924 14.9814L30.3177 15.243L30.2429 15.43V15.5047C30.2429 15.5047 30.1681 15.729 30.0934 15.8038L29.9812 15.8785C29.9812 15.8785 29.8691 16.1402 29.7943 16.215L29.6822 16.3271V16.4019C29.6822 16.4019 29.5326 16.5514 29.4205 16.6262H29.3083C29.3083 16.6262 29.1962 16.8505 29.084 16.8879L28.9345 16.9627C28.9345 16.9627 28.785 17.1122 28.7102 17.1496H28.598L28.4111 17.2991H28.299H27.9999V17.4486C27.9999 17.4486 27.9625 17.5608 27.8504 17.5608C27.7756 17.5608 27.7008 17.5608 27.6635 17.5608L27.2149 17.6729H27.0279L26.8036 17.7477C26.7289 17.7851 26.6541 17.8225 26.542 17.8225H26.3924L26.1681 17.8972C26.1681 17.8972 26.056 17.8972 25.9065 17.8972H25.57L25.3457 17.9346C25.2336 17.972 25.1214 18.0094 25.0466 17.972L24.9345 17.8972L24.5233 17.972C24.5233 17.972 24.3737 17.972 24.2616 17.9346L24.299 17.972Z" fill="#E35812"/>
<path d="M35.0284 11.3925C35.0284 11.3925 35.0284 11.1682 35.0284 11.0934V10.8691L35.1032 10.7196V10.4953C35.1032 10.4953 35.0658 10.3458 35.0658 10.2336V10.1215L35.1406 9.85979L35.2153 9.67287V9.5981C35.2153 9.5981 35.1406 9.3738 35.1406 9.29903L35.2153 9.18689C35.2153 9.18689 35.1406 8.88782 35.1406 8.81305V8.66352V8.58876C35.1406 8.47661 35.1406 8.36446 35.1406 8.28969V8.17754V8.06539C35.1406 7.95324 35.1406 7.84109 35.1406 7.80371V7.69156L35.1032 7.42987V7.24296L35.0658 7.16819C35.0658 7.09343 35.0658 7.01866 35.0658 6.90651C35.0658 6.90651 35.0658 6.83174 35.0658 6.79436C35.0658 6.75697 35.0658 6.7196 35.1032 6.68221L35.2153 6.57006H35.1032C35.1032 6.57006 34.991 6.45791 35.0284 6.271V6.15884V5.93455L34.9163 5.71025L34.8041 5.44857H34.6546L34.3555 5.3738H34.206H34.1312C34.0191 5.41118 33.9069 5.41118 33.8321 5.3738H33.72L33.3088 5.33642H33.0471H32.5985H32.3742C32.3742 5.33642 32.1873 5.44857 32.0751 5.44857H32.0004C32.0004 5.44857 31.8508 5.44857 31.7761 5.41118H31.6639H31.6265C31.5144 5.41118 31.4396 5.44857 31.4022 5.44857H31.2527L30.9536 5.41118C30.8789 5.41118 30.8041 5.41118 30.7667 5.33642V5.22426L30.6172 4.96258C30.6172 4.9252 30.6172 4.85043 30.6172 4.7009V4.36445C30.6172 4.28968 30.6172 4.21492 30.6172 4.10277C30.6172 4.06539 30.6172 3.99062 30.692 3.91586L30.7667 3.8037C30.7667 3.8037 30.9162 3.61679 31.0658 3.61679H31.2527H31.5144H31.6265C31.6265 3.61679 31.8135 3.54202 31.963 3.54202H32.6733C32.6733 3.54202 32.8976 3.54202 32.9723 3.54202H33.1219L33.6078 3.57941H33.6826C33.6826 3.57941 33.8695 3.57941 33.9443 3.57941H34.0191H34.2807H34.6172C34.6172 3.57941 34.8415 3.57941 34.9163 3.61679H35.0284L35.0658 3.65417C35.1406 3.61679 35.2527 3.57941 35.4022 3.54202H35.6639H35.8508H36.0751C36.0751 3.54202 36.3368 3.50464 36.3742 3.54202H36.4863L36.748 3.61679H37.0097H37.2714H37.3835L37.7948 3.69155H37.9443C37.9443 3.69155 38.1312 3.57941 38.2807 3.57941H38.7293L38.8415 3.54202H39.3275H39.477C39.5144 3.54202 39.5892 3.54202 39.6639 3.46725C39.7387 3.46725 39.7761 3.46726 39.8135 3.50464L39.963 3.72894L40.0751 3.50464C40.0751 3.50464 40.1873 3.50464 40.3368 3.50464C40.5237 3.50464 40.6733 3.50464 40.7106 3.50464H40.8602C40.9349 3.46726 41.0845 3.42987 41.234 3.42987C41.234 3.42987 41.4583 3.46726 41.4957 3.50464C41.5705 3.57941 41.6079 3.65417 41.6079 3.69155C41.6079 3.76632 41.6079 3.84109 41.6079 3.87847V3.99062V4.10277C41.6452 4.21492 41.6452 4.32707 41.6079 4.40183V4.51399V4.58876C41.6079 4.73829 41.6079 4.85043 41.6079 4.9252C41.6079 4.99996 41.5705 5.07474 41.4957 5.18689C41.4957 5.22427 41.3836 5.26165 41.2714 5.29903H41.0845L40.9723 5.33642C40.8976 5.33642 40.7854 5.3738 40.6359 5.3738H40.5237C40.5237 5.3738 40.3368 5.3738 40.2621 5.3738H40.1499C40.1499 5.3738 39.8882 5.44857 39.8135 5.44857H39.5892H39.4022L39.1032 5.3738H38.9163C38.9163 5.3738 38.7293 5.44857 38.6172 5.44857C38.505 5.44857 38.4303 5.41118 38.3929 5.41118H38.3181H38.0938L37.6452 5.48595L37.4957 5.56071L37.3835 5.74763L37.3088 5.97193C37.3088 5.97193 37.3088 6.15884 37.3088 6.23361V6.34576V7.01866V7.24296L37.234 7.69156V8.028H37.1219H37.0845C37.0845 8.028 37.0845 8.10277 37.1966 8.17754C37.2714 8.25231 37.3088 8.28969 37.2714 8.32708V8.4766V8.73829C37.2714 8.81305 37.2714 8.88782 37.2714 8.96258V9.07474L37.234 9.26166V9.56072C37.234 9.56072 37.3088 9.71025 37.3088 9.8224V10.1215V10.2336C37.3088 10.3458 37.3088 10.4205 37.3088 10.4953V10.6074L37.2714 10.8691V11.056C37.2714 11.056 37.3462 11.2803 37.3462 11.3551V11.4299L37.2714 11.7289V12.0654L37.3462 12.1402V12.3645V12.4392V12.9252C37.3462 12.9252 37.3462 13.0747 37.3462 13.1869V13.3364L37.3088 13.3738C37.3088 13.3738 37.3088 13.4486 37.3835 13.486C37.3835 13.5607 37.3835 13.5981 37.3835 13.5981V13.6729L37.3462 13.9346C37.3462 13.9719 37.3462 14.0467 37.4209 14.1215C37.4209 14.1962 37.4209 14.271 37.4209 14.3084L37.2714 14.4579L37.4209 14.5327C37.4209 14.5327 37.4957 14.5701 37.4957 14.6448C37.4957 14.6448 37.4957 14.757 37.4209 14.8691V15.0187L37.3835 15.1308L37.4583 15.4299C37.4583 15.4299 37.4583 15.6542 37.4583 15.6916V15.8037C37.4583 15.8037 37.4583 15.9906 37.4583 16.0654V16.1775V16.8504C37.4583 16.8878 37.4583 16.9626 37.4209 17.0747V17.1869V17.4486V17.5607C37.4209 17.5607 37.4209 17.6729 37.3835 17.7476L37.3088 17.8598C37.3088 17.8598 37.1592 18.0093 37.0097 18.0467H36.6733C36.6733 18.0467 36.449 18.0467 36.3742 18.0467H36.2621C36.1499 18.0841 36.0751 18.1215 36.0004 18.1215H35.8882H35.8135C35.6639 18.1215 35.5144 18.1215 35.4396 18.1215C35.3649 18.1215 35.2901 18.0841 35.2527 18.0467C35.2153 18.0467 35.1779 17.9719 35.1779 17.8972C35.1406 17.7103 35.1032 17.5981 35.1032 17.5607V17.3364V17.2617C35.1032 17.1495 35.1032 17.0374 35.1032 16.9626V16.8504C35.0658 16.7009 35.0284 16.6261 35.0284 16.5888C35.0284 16.5514 35.0284 16.4766 35.0658 16.4018V16.2897V16.2523V16.1402C35.0658 16.1402 35.0658 16.028 35.1032 15.9532L35.1779 15.8411V15.7289C35.1779 15.7289 35.1406 15.542 35.1406 15.4299V15.1308C35.1406 15.1308 35.1406 14.8691 35.1406 14.8318V14.7196L35.3649 14.4953H35.1406C35.1406 14.4953 35.0658 14.4205 35.0658 14.3458C35.0658 14.271 35.0658 14.2336 35.1032 14.1589V14.0467V13.8224C35.1032 13.6729 35.0658 13.5607 35.0658 13.486V13.0374V13C35.0658 12.8878 35.0658 12.7757 35.0658 12.7009V12.5514L35.0284 12.2897V11.8785V11.5046V11.3925Z" fill="#E35812"/>
<path d="M43.439 12.9252V12.8504V12.7757C43.439 12.7009 43.439 12.5887 43.4764 12.4766V12.3645L43.5137 12.2897V11.8785V11.6542C43.5137 11.6168 43.5137 11.542 43.5137 11.5046C43.5137 11.4673 43.5137 11.4299 43.5137 11.3551V11.2056V11.1682V10.9065V10.7944V10.7196L43.4764 10.4953V10.1588V9.97192C43.4764 9.82239 43.4764 9.74763 43.4764 9.67286V9.59809L43.5137 9.37379V9.29903C43.5137 9.29903 43.439 9.14949 43.439 9.03734V8.62613C43.439 8.62613 43.439 8.40183 43.439 8.32707V8.17753V8.14015C43.4016 8.028 43.3642 7.91585 43.4016 7.84108V7.72893V7.65417C43.3642 7.54202 43.3268 7.46725 43.3268 7.42987C43.3268 7.39248 43.3268 7.31772 43.3268 7.24295V7.09342C43.3268 7.09342 43.3268 6.86912 43.3268 6.79435V6.64482V6.57005V6.34576V6.27099V6.19622C43.3268 6.19622 43.2521 5.97192 43.2895 5.89715V5.78501V5.37379C43.2895 5.29903 43.2521 5.18688 43.2521 5.07473C43.2521 4.96258 43.2521 4.9252 43.2521 4.88781V4.81305V4.73828C43.2521 4.62613 43.2521 4.51398 43.2521 4.43921L43.3268 4.32706V4.02799C43.3268 4.02799 43.3268 3.8037 43.4016 3.72893L43.5137 3.61678C43.5137 3.61678 43.6259 3.42986 43.7007 3.39248H43.7754H44.0371C44.1867 3.39248 44.2614 3.39248 44.3362 3.39248H44.4483L44.6352 3.42986H44.8222L44.8969 3.3551H45.0091C45.0091 3.3551 45.1586 3.3551 45.2334 3.3551H45.3829C45.3829 3.3551 45.6446 3.3551 45.7194 3.3551H46.0184L46.1306 3.42986L46.3175 3.3551H46.4296C46.4296 3.3551 46.6539 3.28034 46.6913 3.31772H46.7661L46.8409 3.54202C46.8409 3.54202 46.8782 3.54201 46.953 3.42986C47.0278 3.31771 47.0652 3.28033 47.0652 3.28033C47.1773 3.28033 47.2147 3.28033 47.2521 3.28033H47.3268H47.5511H47.6259C47.6259 3.28033 47.8876 3.28033 47.9624 3.28033H48.1119H48.1867C48.3362 3.24295 48.411 3.24295 48.4483 3.28033H48.5605C48.6726 3.24295 48.7848 3.20557 48.8969 3.20557C48.9717 3.20557 49.0465 3.20557 49.1212 3.24295H49.196C49.196 3.24295 49.4577 3.24295 49.5698 3.24295H49.6446C49.6446 3.24295 49.8689 3.31771 49.9063 3.3551L50.0184 3.42986H50.2053C50.2053 3.42986 50.3175 3.42986 50.3549 3.42986L50.5044 3.50463H50.6539H50.7287C50.8782 3.50463 51.0278 3.50463 51.1025 3.54202H51.2895L51.6633 3.76631H51.7007C51.7007 3.76631 51.925 3.84108 52.0371 3.91585L52.2614 4.06538C52.2614 4.06538 52.4483 4.06538 52.4857 4.14015L52.5605 4.21491L52.8222 4.40183L52.9343 4.51398C52.9343 4.51398 53.1212 4.70089 53.1586 4.73828L53.2334 4.85043L53.3082 5.11211L53.4577 4.99996H53.4951C53.4951 4.99996 53.5698 4.99996 53.6072 5.07473C53.6072 5.14949 53.6446 5.18687 53.682 5.22426L54.0558 5.93454C54.0558 5.93454 54.0558 6.00931 54.1306 6.08407C54.1306 6.15884 54.168 6.19622 54.2053 6.27099V6.45791L54.3175 6.64482L54.3923 6.9065L54.467 7.1308C54.467 7.1308 54.5418 7.3551 54.5418 7.42987V7.5794C54.5418 7.5794 54.654 7.76632 54.654 7.87847V7.99062V8.14015C54.654 8.2523 54.6539 8.32706 54.5792 8.43921L54.5044 8.58875C54.5044 8.58875 54.5044 8.73828 54.5044 8.77566C54.5044 8.81305 54.5044 8.85043 54.5044 8.88782V8.99996C54.5044 8.99996 54.5044 9.18688 54.5044 9.26165L54.4296 9.41118L54.3549 9.74763C54.3549 9.74763 54.3549 9.93454 54.2801 10.0467L54.2053 10.1962C54.2053 10.1962 54.2053 10.3831 54.0932 10.4579L54.0184 10.5327C54.0184 10.5327 53.9811 10.7196 53.9063 10.8317L53.8315 10.9065L53.7194 11.0934C53.7194 11.0934 53.6446 11.243 53.5698 11.3177L53.3829 11.4673L53.2708 11.5794L53.1212 11.6916L53.0091 11.8411L52.9343 11.9159C52.9343 11.9159 52.7848 12.1028 52.71 12.1402L52.5979 12.2149L52.4857 12.3271C52.4857 12.3271 52.3362 12.4392 52.224 12.514H52.0745L51.925 12.6635C51.8128 12.7383 51.7381 12.813 51.6633 12.813H51.5511L51.1773 13.0747L51.0652 13.2243L51.2147 13.4112L51.5511 13.785C51.5511 13.785 51.6633 13.8598 51.7381 13.9719C51.8128 14.0467 51.8502 14.1215 51.925 14.2336L52.0371 14.4205C52.0371 14.4205 52.1119 14.5327 52.1867 14.5701C52.2614 14.6074 52.2614 14.6822 52.224 14.7196L52.0745 14.8691H52.2614L52.3736 15.056C52.411 15.1308 52.4483 15.1682 52.4857 15.2056C52.4857 15.2056 52.5231 15.243 52.5605 15.2803V15.3551L52.8596 15.6542L53.0465 15.8411L53.1212 15.9159C53.1212 15.9159 53.2334 16.028 53.3082 16.1028L53.3829 16.1775H53.4203C53.4203 16.1775 53.4951 16.2897 53.5325 16.3271C53.5325 16.3645 53.5698 16.4018 53.6072 16.4018V16.4766L53.8315 16.6635L53.9063 16.7383L54.0558 16.9626L54.1306 17.0747L54.2053 17.1495C54.2053 17.1495 54.3923 17.3738 54.4296 17.4486L54.5044 17.6355C54.5044 17.6355 54.5418 17.8598 54.5044 17.8972C54.467 17.9346 54.3549 17.9719 54.2427 18.0093H54.168C54.168 18.0093 53.9437 18.0093 53.8689 18.0093H53.6446H53.3082C53.2708 18.0093 53.2334 18.0093 53.1586 18.0093C53.1212 18.0093 53.0465 18.0093 53.0091 18.0093H52.8969H52.8222C52.6726 18.0093 52.5979 18.0093 52.5605 18.0093H52.4857C52.4857 18.0093 52.224 17.9346 52.1867 17.8972C52.0745 17.8598 51.9997 17.785 51.9624 17.6729L51.8128 17.4486L51.7007 17.2617H51.6633C51.6633 17.2617 51.5138 17.0747 51.4764 16.9626L51.4016 16.8504L51.2895 16.7383L51.1025 16.5514L50.8782 16.2523V16.1775C50.8782 16.1775 50.6913 15.9532 50.6539 15.9159V15.8037C50.6539 15.8037 50.4296 15.6542 50.3923 15.5794L50.2801 15.4299L50.1306 15.2803L49.9437 15.0187L49.7941 14.7944C49.7941 14.7944 49.7567 14.6448 49.7567 14.6074V14.5327H49.7194C49.6072 14.4205 49.5698 14.3458 49.5324 14.3084V14.1962L49.3455 13.9345C49.3082 13.8972 49.2708 13.8598 49.2708 13.8224C49.2708 13.785 49.2334 13.7476 49.196 13.7102L49.1212 13.5981L48.9343 13.4112L48.7474 13.299H48.5605L48.1119 13.2243H47.925L47.7381 13.299H47.7007C47.7007 13.299 47.4764 13.299 47.439 13.299H47.3268L47.0278 13.2243C46.9156 13.2617 46.8409 13.299 46.8035 13.299H46.6913H46.2427H46.1306C46.1306 13.299 45.981 13.299 45.9437 13.299C45.8689 13.299 45.8315 13.299 45.7941 13.299H45.5698L45.4577 13.4112L45.2708 13.7476V14.0093C45.2708 14.0093 45.2708 14.0841 45.2708 14.1215C45.2708 14.1588 45.2708 14.2336 45.2708 14.271V14.3831L45.196 14.4953V14.7944L45.2334 15.3551V15.6168V15.6916C45.2334 15.8037 45.2334 15.9159 45.1586 15.9906V16.0654H45.1212C45.196 16.1775 45.2334 16.2897 45.2334 16.4018C45.2334 16.4766 45.2334 16.5514 45.196 16.6261V16.7009H45.1586C45.2334 16.8504 45.2334 16.9626 45.2334 17.0747L45.1586 17.3738V17.4486C45.1586 17.4486 45.1212 17.6729 45.0838 17.7476C45.0465 17.785 44.9343 17.8224 44.7848 17.8598H44.5605H44.4857C44.4109 17.8598 44.2988 17.8598 44.1493 17.8598H43.8876C43.7381 17.8598 43.6633 17.8598 43.6259 17.8598H43.5137C43.5137 17.8598 43.2895 17.7476 43.2521 17.6729C43.2147 17.6355 43.1773 17.5607 43.1773 17.5233V17.2617L43.1399 17.1869C43.1399 17.0374 43.1025 16.9252 43.1025 16.8504V16.514V16.2897V16.1402V15.8785C43.1025 15.8037 43.1025 15.6916 43.1025 15.5794C43.1025 15.5046 43.1025 15.4299 43.1399 15.3551L43.2147 15.2803V15.056V14.9439C43.2147 14.8317 43.2147 14.7196 43.2147 14.6448V14.5327V14.271V14.1962C43.2147 14.1962 43.2147 13.9719 43.2895 13.8972V13.785L43.3268 13.7102C43.2895 13.5981 43.2895 13.4859 43.3268 13.4112L43.4016 13.299L43.3268 13.0373C43.3268 13.0373 43.3268 12.8878 43.3268 12.7757L43.439 12.9252ZM45.3455 10.9065V11.056L45.4203 11.2803L45.5698 11.3925H45.7941L45.9063 11.3551C46.0184 11.3551 46.0558 11.3551 46.0932 11.3551H46.2053H46.5044C46.6166 11.3177 46.6913 11.2803 46.7661 11.2803H46.8409L47.0652 11.3551H47.2521V11.5046V11.542C47.2521 11.542 47.3268 11.5046 47.4016 11.3925C47.4764 11.2803 47.5511 11.2803 47.6259 11.2803L47.925 11.3551C47.925 11.3551 48.1119 11.243 48.1867 11.243H48.2614C48.2614 11.243 48.3736 11.243 48.411 11.2803H48.5231C48.5231 11.2803 48.71 11.243 48.8222 11.2803L48.9717 11.3551C48.9717 11.3551 49.196 11.3551 49.2708 11.3551H49.3829L49.7194 11.3177H50.2053L50.3923 11.243H50.4296C50.4296 11.243 50.5792 11.0934 50.6913 11.056H50.8409L51.2147 10.8691C51.2147 10.8691 51.3642 10.6448 51.439 10.6074L51.5511 10.5327C51.5511 10.5327 51.6259 10.3831 51.7007 10.3084L51.7754 10.2336L51.8876 10.0093L52.0371 9.78501L52.1493 9.59809L52.224 9.44856L52.2988 9.22426L52.3736 8.96258H52.6353C52.6353 8.96258 52.6353 8.96258 52.6353 8.9252C52.6353 8.9252 52.5605 8.85043 52.4857 8.77566C52.3736 8.7009 52.3362 8.62613 52.3736 8.58875V8.40183L52.411 8.17753L52.3362 7.87847C52.3362 7.87847 52.2614 7.69155 52.2614 7.65417V7.54202L52.224 7.50463C52.1493 7.39248 52.1119 7.31772 52.1119 7.24295V7.1308L52.0371 7.05604C51.925 6.94389 51.8876 6.86912 51.8502 6.79435V6.68221L51.4016 6.19622L51.2895 6.04669L51.1399 5.93454L50.9904 5.85977L50.4296 5.52333C50.4296 5.52333 50.168 5.52333 50.0932 5.48594H49.9811L49.9063 5.44856C49.7567 5.44856 49.682 5.44856 49.6072 5.37379L49.5324 5.29902H49.1212H49.0091C48.9717 5.29902 48.8969 5.29902 48.8595 5.29902C48.8222 5.29902 48.7848 5.29902 48.7474 5.29902L48.5605 5.22426H48.4483H48.1493C48.1119 5.22426 48.0745 5.22426 48.0371 5.22426C47.9997 5.22426 47.9624 5.22426 47.8876 5.22426H47.7754L47.5138 5.26164H47.4764C47.4764 5.26164 47.2895 5.33641 47.2147 5.33641C47.1399 5.33641 47.0652 5.33641 46.9904 5.33641H46.8409L46.5792 5.29902C46.5044 5.33641 46.3923 5.37379 46.2427 5.37379H46.168C46.168 5.37379 45.9437 5.37379 45.8689 5.33641H45.7567H45.682C45.6446 5.33641 45.5324 5.41118 45.4203 5.44856H45.3455L45.3081 5.63547L45.2334 5.78501H45.0465C45.0465 5.78501 45.0465 5.78501 45.0465 5.82239C45.0465 5.85978 45.0838 5.85977 45.196 5.93454C45.2708 6.00931 45.3455 6.04669 45.3455 6.08407V6.34576C45.3455 6.34576 45.3455 6.57005 45.3455 6.60744V6.68221V6.98127C45.3455 7.09342 45.3455 7.20557 45.3455 7.24295V7.31772L45.3081 7.54202V7.8037C45.3081 7.8037 45.3829 7.99061 45.3829 8.10276V8.2523L45.3455 8.36445C45.3455 8.43921 45.3455 8.51398 45.3455 8.55137V8.66351V8.7009C45.3455 8.73828 45.3829 8.81305 45.3829 8.9252C45.3829 8.99997 45.3829 9.03735 45.3829 9.11211L45.3081 9.33641V9.52333L45.3455 9.56071C45.3455 9.67286 45.3455 9.78501 45.3455 9.85978V9.97192C45.3455 9.97192 45.3829 10.1962 45.3455 10.271L45.2708 10.4205L45.3455 10.6074C45.3455 10.6074 45.3829 10.8317 45.3829 10.9065H45.3455Z" fill="#E35812"/>
<path d="M70.6541 12.1402C70.6541 12.1402 70.6541 12.2523 70.6541 12.2897V12.4019L70.5794 12.6262V12.8131V12.9252C70.5794 13 70.5794 13.0748 70.5794 13.1495V13.3365L70.5046 13.4112L70.3551 13.6729C70.3551 13.6729 70.3177 13.8598 70.2429 13.972L70.1682 14.0467C70.1682 14.0467 70.1682 14.3084 70.0934 14.3458L70.0186 14.4206L69.9065 14.6823L69.7943 14.9439L69.7196 15.0187L69.57 15.2056C69.57 15.2056 69.4953 15.3925 69.4205 15.5047L69.3457 15.5794L69.084 15.9159L69.0093 15.9907L68.8597 16.1402H68.785V16.215C68.7102 16.2897 68.6354 16.3645 68.5607 16.4019H68.4485L68.3738 16.514L68.1868 16.7009C68.1868 16.7009 68.0747 16.7757 67.9626 16.8505L67.7756 17L67.5887 17.1122H67.5513L67.327 17.2991L67.2149 17.3738L66.9532 17.5234C66.9532 17.5234 66.8037 17.6729 66.7289 17.7103H66.6168L66.1682 17.9346C66.1682 17.9346 65.9439 18.0094 65.8691 18.0094H65.5326L65.3831 18.0841H65.3457C65.3457 18.0841 65.1214 18.1963 65.0467 18.2337H64.9345H64.785H64.5607H64.2616C64.1868 18.2337 64.1121 18.271 63.9626 18.271H63.5887C63.5887 18.271 63.327 18.3084 63.2149 18.3084H63.028L62.6168 18.2337L62.2055 18.1589C62.2055 18.1589 62.0934 18.1963 62.0186 18.1963C61.9439 18.1963 61.9065 18.1963 61.9065 18.1963V17.8224L61.8317 18.1589C61.8317 18.1589 61.7943 18.2337 61.7196 18.2337C61.6822 18.2337 61.6448 18.2337 61.57 18.2337C61.4953 18.2337 61.4579 18.2337 61.4579 18.1963H61.271L61.0093 18.0841C60.9345 18.0841 60.8597 18.0841 60.7476 18.0467C60.6728 18.0467 60.5981 18.0094 60.5233 17.972H60.4111L60.0747 17.7851L59.8504 17.6729L59.7382 17.5981C59.7382 17.5981 59.5513 17.486 59.5139 17.4486L59.4392 17.3738L59.2897 17.2617C59.2897 17.2617 59.1027 17.1869 59.028 17.1122C58.9532 17.0748 58.9158 17 58.8784 16.9252L58.8037 16.8131L58.6168 16.7009H58.5794C58.5794 16.7009 58.4298 16.5888 58.3551 16.514L58.2803 16.4393L58.0934 16.215C58.0934 16.215 57.9065 16.1028 57.8691 16.0654L57.57 15.8411C57.57 15.8411 57.4205 15.729 57.3831 15.6542V15.5794H57.3083C57.2336 15.4673 57.1588 15.3925 57.1214 15.3178L57.0467 15.2056L56.9719 15.0187L56.8597 14.8318L56.7102 14.6449L56.5233 14.4206L56.4111 14.1963V14.0841L56.299 13.8224H56.2616C56.2616 13.8224 56.1495 13.5981 56.1495 13.5234V13.4112C56.1495 13.4112 56.0747 13.2991 55.9999 13.1495V13L55.8878 12.8131L55.813 12.4019C55.813 12.4019 55.7009 12.1776 55.7009 12.1402V11.7664C55.7009 11.7664 55.5887 11.5794 55.5887 11.4673V11.3178C55.5887 11.3178 55.4766 11.0935 55.4766 10.9439V10.757L55.5513 10.4953V10.3084V10.2336C55.5513 10.1963 55.5513 10.0841 55.5887 9.93458V9.78505H55.6261C55.6261 9.6729 55.6261 9.59814 55.6261 9.52337V9.4486L55.7009 9.26169V9.14954C55.7009 9.14954 55.7009 8.92524 55.7382 8.88786L55.813 8.77571L55.8878 8.62618V8.51402L55.9999 8.25234L56.0747 8.17758V8.10281C56.0747 8.10281 56.0747 7.87851 56.1868 7.80374L56.2616 7.6916V7.50468H56.299C56.3364 7.39253 56.3738 7.31776 56.4485 7.243L56.5233 7.13084L56.7102 6.79439L56.8597 6.60748L57.0093 6.45795C57.0093 6.45795 57.0467 6.3458 57.1214 6.27103L57.1962 6.19626L57.5326 5.82244L57.6448 5.71029V5.63552C57.6448 5.63552 57.7569 5.52337 57.7569 5.48599C57.7569 5.48599 57.7569 5.4486 57.7943 5.41122C57.7943 5.37384 57.8691 5.33645 57.9439 5.29907L58.056 5.2243L58.2055 5.07477C58.2055 5.07477 58.2803 4.85047 58.3925 4.77571L58.5794 4.66355H58.6915C58.6915 4.66355 58.8411 4.47664 58.9158 4.43926L59.0654 4.36449C59.0654 4.36449 59.2149 4.21496 59.2897 4.17758L59.4392 4.10281C59.4392 4.10281 59.5887 3.99066 59.7009 3.95328L59.8504 3.87851C59.8504 3.87851 60.0373 3.80374 60.1121 3.76636L60.2616 3.69159C60.2616 3.69159 60.4485 3.57944 60.5233 3.54206H60.6354L60.785 3.46729H60.9345L61.1962 3.39252L61.3831 3.31776L61.6448 3.24299C61.6448 3.24299 61.8317 3.20561 61.9065 3.20561H62.0186H62.056C62.1308 3.20561 62.2429 3.16823 62.3551 3.16823H62.5046C62.5046 3.16823 62.7289 3.13084 62.7663 3.13084H62.8784L63.327 3.09346H63.3644C63.3644 3.09346 63.6261 3.09346 63.6635 3.09346H63.7756H63.8878C63.9252 3.09346 63.9999 3.09346 64.0373 3.13084L64.1495 3.20561C64.1495 3.20561 64.2242 3.20561 64.299 3.20561C64.3738 3.20561 64.4111 3.20561 64.4485 3.20561L64.5607 3.46729V3.20561C64.5607 3.20561 64.5607 3.13084 64.6354 3.13084C64.7102 3.13084 64.785 3.13084 64.8597 3.20561H64.9719L65.0467 3.24299C65.1962 3.28038 65.271 3.31776 65.3083 3.35514H65.3831L65.4205 3.39252L65.7196 3.46729H65.8317L65.9065 3.54206C66.0186 3.57944 66.0934 3.61683 66.1682 3.65421C66.2429 3.72898 66.2803 3.76636 66.3177 3.76636V3.84113H66.3925C66.5046 3.87851 66.5794 3.95327 66.6168 3.99065L66.6915 4.06542L66.8784 4.21496C66.8784 4.21496 67.0654 4.25234 67.1401 4.3271L67.2897 4.51402L67.3644 4.62617H67.4018C67.4018 4.62617 67.6261 4.73832 67.6261 4.77571V4.85047L67.8504 5.03739L68.1495 5.29907L68.299 5.41122L68.4112 5.48599L68.6355 5.63552C68.6355 5.63552 68.785 5.78505 68.8224 5.85981L68.9345 6.08412H68.9719C68.9719 6.08412 69.0467 6.15888 69.1214 6.19626C69.1962 6.23365 69.2336 6.27103 69.1962 6.30842L69.0467 6.5701L69.271 6.42057C69.271 6.42057 69.271 6.42057 69.3457 6.42057C69.3831 6.42057 69.4205 6.42056 69.4205 6.53271C69.4205 6.60748 69.4205 6.64487 69.4579 6.68225L69.5326 6.79439L69.7196 7.16823L69.8317 7.31776L69.9439 7.42991V7.50468C69.9439 7.50468 70.0934 7.69159 70.1308 7.76636V7.87851L70.3177 8.14019C70.3551 8.21496 70.3925 8.28973 70.3925 8.32711V8.40187L70.4298 8.58879C70.4298 8.58879 70.5046 8.85048 70.5046 8.92524V9.07477V9.29907C70.542 9.41122 70.5794 9.52337 70.5794 9.63552V9.85982V10.0841L70.6541 10.3084C70.6541 10.3084 70.7289 10.4953 70.7289 10.6449V10.8692V10.9813C70.7289 11.0187 70.7289 11.0561 70.7289 11.0935C70.7289 11.1309 70.7289 11.2056 70.7289 11.243V11.3551V11.8411V11.9533L70.6541 12.1402ZM58.4298 11.0187L58.3551 11.1682C58.3551 11.1682 58.3551 11.3178 58.3551 11.4299V11.5794C58.3551 11.5794 58.3925 11.8037 58.3551 11.8785V11.9907L58.3177 12.1776C58.3177 12.1776 58.3925 12.3271 58.3925 12.3645C58.3925 12.4019 58.3925 12.4393 58.3925 12.4766V12.5888L58.5046 12.8879L58.5794 13L58.7289 13.2243L58.9906 13.5981L59.0654 13.7103L59.2897 13.972L59.5139 14.1963C59.5139 14.1963 59.5887 14.2337 59.6261 14.271C59.6261 14.271 59.6635 14.3458 59.7009 14.3832V14.4953L59.9252 14.7196C59.9999 14.757 60.0747 14.8318 60.1495 14.9439L60.2616 15.0561L60.3738 15.1682L60.4485 15.5421L60.5981 15.2804C60.5981 15.2804 60.6354 15.243 60.6728 15.243C60.6728 15.243 60.7476 15.243 60.785 15.3178C60.8224 15.3552 60.8597 15.3925 60.8971 15.3925L61.0467 15.4673L61.1962 15.5794H61.2336C61.2336 15.5794 61.4205 15.5794 61.4953 15.6542L61.57 15.729L61.9812 15.9533L62.3551 16.1028L62.5794 16.1776L62.8411 16.2523C62.8411 16.2523 63.0654 16.2523 63.1027 16.2523L63.2149 16.3271H63.4766H63.7756H64.0373H64.1495H64.3364L64.5981 16.2523C64.6728 16.215 64.7476 16.1776 64.8597 16.1402H64.9719C64.9719 16.1402 65.084 16.0654 65.1962 16.028H65.3083L65.5326 15.9159L65.7196 15.8411L66.1308 15.6168C66.1308 15.6168 66.2803 15.4673 66.3551 15.4299C66.4672 15.3925 66.542 15.3552 66.5794 15.3552H66.6915L66.8784 15.1682C66.8784 15.1682 66.9906 15.0935 67.1027 15.0561H67.2523C67.2523 15.0561 67.3644 14.8318 67.4392 14.757L67.5513 14.6823L67.8504 14.4206L67.9252 14.271L67.9999 13.972C67.9999 13.972 67.9999 13.7851 68.0747 13.7103V13.6355L68.2616 13.3738L68.3738 12.9626C68.3738 12.9626 68.4485 12.7383 68.4859 12.6636L68.5607 12.5888H68.785H68.8224C68.8224 12.5888 68.785 12.514 68.7102 12.4393C68.6355 12.3645 68.5981 12.2897 68.5981 12.2897L68.6728 12.1776V12.028C68.6728 12.028 68.6728 11.9159 68.7102 11.8037V11.6542L68.7476 11.4299V11.2804V11.243V11.0561V10.8692V10.6075V10.458C68.7102 10.3084 68.7102 10.2337 68.7102 10.1963V10.0841C68.7102 10.0841 68.6354 9.8972 68.5981 9.78505C68.5981 9.6729 68.5981 9.59814 68.5981 9.56076V9.48599L68.5607 9.22431L68.4859 9.11216L68.3738 8.88786V8.81309C68.3738 8.81309 68.299 8.62618 68.2616 8.55141V8.47664L68.1868 8.36449C68.1121 8.25234 68.0747 8.14019 68.0373 8.10281V7.99066C68.0373 7.99066 67.9252 7.87851 67.8504 7.76636L67.7756 7.65421L67.6261 7.46729L67.4766 7.28038L67.3644 7.13084L67.1775 6.98131H67.1401C67.1401 6.98131 66.9906 6.83178 66.9532 6.75702L66.8784 6.64487L66.7663 6.45795C66.7663 6.45795 66.542 6.3458 66.5046 6.27103L66.3925 6.15888L65.9812 5.97197L65.7569 5.82244C65.7569 5.82244 65.5326 5.82244 65.4953 5.74767L65.4205 5.6729L65.2336 5.59813H65.1214L64.8597 5.52337H64.7476L64.5981 5.41122H64.4859C64.4859 5.41122 64.2616 5.33645 64.1868 5.29907L64.0747 5.2243C64.0747 5.2243 63.8878 5.26168 63.813 5.2243H63.6635L63.5887 5.18692H63.028H62.8037C62.7289 5.18692 62.6541 5.18692 62.542 5.18692H62.4298H62.1682C62.056 5.26169 61.9439 5.29907 61.8691 5.29907H61.7569L61.5326 5.41122L61.4205 5.52337L61.3457 5.59813C61.3457 5.59813 61.1962 5.71029 61.1214 5.74767H61.0093L60.8224 5.97197H60.785C60.785 5.97197 60.5981 6.1215 60.5233 6.15888H60.4111L60.0747 6.42057C60.0747 6.42057 60.0747 6.53271 59.9999 6.60748C59.9626 6.68225 59.8878 6.71963 59.813 6.71963H59.4766L59.5887 6.86916V6.94393C59.5887 6.94393 59.5887 7.0187 59.5139 7.05608C59.4392 7.05608 59.4018 7.09346 59.4018 7.09346H59.2897V7.20561C59.2523 7.31776 59.2149 7.39253 59.1775 7.42991V7.50468H59.1027C59.0653 7.61683 59.028 7.69159 58.9532 7.76636L58.841 7.84113C58.841 7.84113 58.8411 8.02804 58.7289 8.14019L58.6541 8.25234V8.32711C58.6541 8.32711 58.6541 8.55141 58.6541 8.58879V8.70094L58.542 8.85047L58.3925 9.14954V9.29907L58.3551 9.37384V9.59813L58.3177 9.6729V9.93458C58.3177 9.93458 58.3177 10.1215 58.3177 10.2336V10.3832V10.5701C58.3177 10.7196 58.3177 10.8318 58.2803 10.9065L58.4298 11.0187ZM64.0373 0.102806C64.0373 0.102806 64.299 0.177574 64.3364 0.214958C64.3364 0.214958 64.4111 0.289719 64.4485 0.327103C64.4859 0.364486 64.5233 0.401872 64.5607 0.476639L64.6728 0.663552C64.6728 0.663552 64.8597 0.775706 64.8971 0.850472V0.962617L65.1962 1.2243H65.271L65.4579 1.48598V1.56075L65.7943 1.93458H65.8691C65.8691 1.93458 66.056 2.15888 66.0934 2.27103C66.0934 2.3458 66.0934 2.38318 66.0934 2.45794C66.0934 2.49533 66.0934 2.53271 66.0186 2.53271H65.8317L65.6822 2.5701C65.57 2.5701 65.4579 2.5701 65.3831 2.5701H65.271H65.1962C65.084 2.60748 65.0093 2.64486 64.8971 2.64486H64.785L64.5233 2.60748C64.4111 2.60748 64.299 2.53271 64.1868 2.42056L63.9252 2.15888L63.5513 1.71028L63.2523 1.37383L63.1401 1.29907L62.7289 1.71028L62.542 1.93458C62.542 1.93458 62.4298 2.08411 62.3551 2.12149H62.2803V2.19626C62.2429 2.30841 62.2055 2.42056 62.1308 2.45794C62.1308 2.45794 62.0186 2.49533 61.8691 2.5701H61.7943C61.7943 2.5701 61.57 2.64486 61.4953 2.5701H61.3831C61.3831 2.5701 61.2336 2.60748 61.1214 2.5701H61.0093H60.785H60.7102C60.7102 2.5701 60.5233 2.57009 60.4485 2.49533C60.4485 2.49533 60.4111 2.42057 60.4111 2.38318C60.4111 2.3458 60.4111 2.27103 60.4859 2.19626L60.6354 1.97197H60.7102L60.8597 1.78505L61.084 1.56075C61.084 1.56075 61.1214 1.48598 61.1962 1.48598C61.271 1.48598 61.3083 1.4486 61.3457 1.41122C61.3457 1.41122 61.3457 1.37383 61.3457 1.29907C61.3457 1.2243 61.3457 1.18692 61.3457 1.14954L61.4205 1.07477L61.5326 0.925233L61.7196 0.775704V0.700936L61.9065 0.476639L61.9812 0.401871L62.1682 0.214958C62.1682 0.214958 62.3925 0.0654206 62.5046 0.0280374C62.6541 -0.0093458 62.7289 -0.0093458 62.7663 0.0280374H62.8411H63.0654H63.4392H63.9252L64.0373 0.102806Z" fill="#E35812"/>
</svg>
