<svg width="1440" height="32" viewBox="0 0 1440 32" fill="none" xmlns="http://www.w3.org/2000/svg">
<path d="M0 0C32.73 0 32.73 32 65.45 32C98.17 32 98.18 0 130.91 0C163.64 0 163.64 32 196.36 32C229.08 32 229.08 0 261.81 0C294.54 0 294.54 32 327.26 32C359.98 32 359.99 0 392.72 0C425.45 0 425.45 32 458.17 32C490.89 32 490.9 0 523.63 0C556.36 0 556.36 32 589.08 32C621.8 32 621.8 0 654.53 0C687.26 0 687.26 32 719.98 32C752.7 32 752.7 0 785.43 0C818.16 0 818.16 32 850.89 32C883.62 32 883.61 0 916.34 0C949.07 0 949.07 32 981.79 32C1014.51 32 1014.52 0 1047.25 0C1079.98 0 1079.98 32 1112.71 32C1145.44 32 1145.43 0 1178.16 0C1210.89 0 1210.89 32 1243.62 32C1276.35 32 1276.35 0 1309.08 0C1341.81 0 1341.81 32 1374.54 32C1407.27 32 1407.27 0 1440 0H0Z" fill="#E95A2A"/>
</svg>
